<svg width="61" height="63" viewBox="0 0 61 63" fill="none" xmlns="http://www.w3.org/2000/svg">
<path d="M50.8334 52.5001C50.8334 53.1963 50.5656 53.864 50.0889 54.3563C49.6123 54.8485 48.9658 55.1251 48.2917 55.1251H12.7084C12.0343 55.1251 11.3878 54.8485 10.9111 54.3563C10.4345 53.864 10.1667 53.1963 10.1667 52.5001V28.8751H2.54169L28.7895 4.23161C29.2574 3.79186 29.8674 3.54817 30.5 3.54817C31.1327 3.54817 31.7426 3.79186 32.2106 4.23161L58.4584 28.8751H50.8334V52.5001ZM30.5 44.6251L39.0375 35.8077C39.5685 35.2593 39.9898 34.6082 40.2772 33.8916C40.5646 33.175 40.7125 32.407 40.7125 31.6314C40.7125 30.8557 40.5646 30.0877 40.2772 29.3711C39.9898 28.6545 39.5685 28.0034 39.0375 27.455C38.5064 26.9065 37.876 26.4715 37.1822 26.1747C36.4883 25.8778 35.7447 25.7251 34.9937 25.7251C34.2427 25.7251 33.499 25.8778 32.8052 26.1747C32.1114 26.4715 31.4809 26.9065 30.9499 27.455L30.5 27.9196L30.0501 27.455C29.5191 26.9065 28.8887 26.4715 28.1948 26.1747C27.501 25.8778 26.7574 25.7251 26.0064 25.7251C25.2554 25.7251 24.5117 25.8778 23.8179 26.1747C23.124 26.4715 22.4936 26.9065 21.9626 27.455C21.4315 28.0034 21.0103 28.6545 20.7229 29.3711C20.4355 30.0877 20.2876 30.8557 20.2876 31.6314C20.2876 32.407 20.4355 33.175 20.7229 33.8916C21.0103 34.6082 21.4315 35.2593 21.9626 35.8077L30.5 44.6251Z" fill="#5BC3E3"/>
</svg>
