<svg width="18" height="18" viewBox="0 0 18 18" fill="none" xmlns="http://www.w3.org/2000/svg">
<path d="M11.7136 8.34627C12.8654 7.50628 13.6154 6.14686 13.6154 4.61538C13.6154 2.07046 11.5449 0 9.00001 0C6.45509 0 4.38463 2.07046 4.38463 4.61538C4.38463 6.14686 5.13462 7.50628 6.28641 8.34627C3.42328 9.44191 1.38464 12.2179 1.38464 15.4615C1.38464 16.8613 2.52339 18 3.9231 18H14.0769C15.4766 18 16.6154 16.8613 16.6154 15.4615C16.6154 12.2179 14.5767 9.44191 11.7136 8.34627ZM5.76926 4.61538C5.76926 2.83395 7.21858 1.38463 9.00001 1.38463C10.7815 1.38463 12.2308 2.83395 12.2308 4.61538C12.2308 6.39682 10.7815 7.84617 9.00001 7.84617C7.21858 7.84617 5.76926 6.39682 5.76926 4.61538ZM14.0769 16.6154H3.9231C3.28688 16.6154 2.76927 16.0978 2.76927 15.4615C2.76927 12.0258 5.56434 9.23073 9.00005 9.23073C12.4358 9.23073 15.2308 12.0258 15.2308 15.4615C15.2308 16.0978 14.7132 16.6154 14.0769 16.6154Z" fill="white"/>
</svg>
