<svg width="39" height="39" viewBox="0 0 39 39" fill="none" xmlns="http://www.w3.org/2000/svg">
<path d="M28.5475 2.20244L28.5472 2.20215C28.3689 2.02568 28.1277 1.92497 27.875 1.92497H10.375C7.9221 1.92497 5.925 3.92028 5.925 6.37497V32.625C5.925 35.0797 7.9221 37.075 10.375 37.075H29.625C32.0779 37.075 34.075 35.0797 34.075 32.625V8.12497C34.075 7.87222 33.9743 7.63109 33.7978 7.45272L33.7975 7.45244L28.5475 2.20244ZM32.175 32.625C32.175 34.0308 31.0308 35.175 29.625 35.175H10.375C8.96917 35.175 7.825 34.0308 7.825 32.625V6.37497C7.825 4.96914 8.96917 3.82497 10.375 3.82497H27.4817L32.175 8.51828V32.625Z" fill="white" stroke="white" stroke-width="0.15"/>
<path d="M25.2499 28.175H14.7499C14.2255 28.175 13.7999 28.6005 13.7999 29.125C13.7999 29.6494 14.2255 30.075 14.7499 30.075H25.2499C25.7743 30.075 26.1999 29.6494 26.1999 29.125C26.1999 28.6005 25.7743 28.175 25.2499 28.175Z" fill="white" stroke="white" stroke-width="0.15"/>
<path d="M19.5761 24.7243L19.576 24.7243C19.1071 24.4889 18.9149 23.9191 19.1505 23.4494L19.5761 24.7243ZM19.5761 24.7243C19.7127 24.7926 19.8572 24.825 19.9999 24.825C20.3494 24.825 20.6837 24.6313 20.8508 24.3008L20.851 24.3005L24.3509 17.3007C24.3509 17.3007 24.3509 17.3006 24.351 17.3005C24.4992 17.0058 24.482 16.6562 24.3091 16.377C24.1363 16.0979 23.8288 15.925 23.4999 15.925H18.037L20.8492 10.3006C21.0849 9.83101 20.8927 9.26111 20.4238 9.02571L20.3901 9.09274L20.4239 9.02577C19.9521 8.78795 19.3841 8.98433 19.1489 9.45098L19.1488 9.4512L15.6489 16.451L15.7159 16.4847L15.6488 16.4512L15.6488 16.4511C15.5006 16.7459 15.5178 17.0955 15.6906 17.3747C15.8636 17.6541 16.1712 17.825 16.4999 17.825H21.9628L19.1506 23.4493L19.5761 24.7243Z" fill="white" stroke="white" stroke-width="0.15"/>
</svg>
