<svg width="185" height="40" viewBox="0 0 185 40" fill="none" xmlns="http://www.w3.org/2000/svg">
<path d="M33.3333 33.3333C33.3333 33.7754 33.1577 34.1993 32.8452 34.5118C32.5326 34.8244 32.1087 35 31.6667 35H8.33333C7.89131 35 7.46738 34.8244 7.15482 34.5118C6.84226 34.1993 6.66667 33.7754 6.66667 33.3333V18.3333H1.66667L18.8783 2.68667C19.1852 2.40746 19.5851 2.25274 20 2.25274C20.4149 2.25274 20.8148 2.40746 21.1217 2.68667L38.3333 18.3333H33.3333V33.3333ZM20 28.3333L25.5983 22.735C25.9466 22.3868 26.2228 21.9734 26.4112 21.5184C26.5997 21.0634 26.6967 20.5758 26.6967 20.0833C26.6967 19.5909 26.5997 19.1032 26.4112 18.6483C26.2228 18.1933 25.9466 17.7799 25.5983 17.4317C25.2501 17.0834 24.8367 16.8072 24.3817 16.6188C23.9268 16.4303 23.4391 16.3333 22.9467 16.3333C22.4542 16.3333 21.9666 16.4303 21.5116 16.6188C21.0566 16.8072 20.6432 17.0834 20.295 17.4317L20 17.7267L19.705 17.4317C19.3568 17.0834 18.9434 16.8072 18.4884 16.6188C18.0334 16.4303 17.5458 16.3333 17.0533 16.3333C16.5609 16.3333 16.0732 16.4303 15.6183 16.6188C15.1633 16.8072 14.7499 17.0834 14.4017 17.4317C14.0534 17.7799 13.7772 18.1933 13.5888 18.6483C13.4003 19.1032 13.3033 19.5909 13.3033 20.0833C13.3033 20.5758 13.4003 21.0634 13.5888 21.5184C13.7772 21.9734 14.0534 22.3868 14.4017 22.735L20 28.3333Z" fill="#5BC3E3"/>
<path d="M55 29.6184V12.3317H58.768L64.7175 23.0078L70.7001 12.3317H74.402V29.6184H70.9315V17.4549L65.8413 26.5445H63.5607L58.4375 17.4549V29.6184H55Z" fill="#5BC3E3"/>
<path d="M86.1937 29.9489C84.8275 29.9489 83.6045 29.7175 82.5248 29.2548C81.4451 28.77 80.5086 28.109 79.7153 27.2716C78.9441 26.4343 78.3491 25.4868 77.9304 24.4291C77.5118 23.3494 77.3024 22.2035 77.3024 20.9916C77.3024 19.7796 77.5118 18.6338 77.9304 17.5541C78.3491 16.4744 78.9441 15.5268 79.7153 14.7115C80.5086 13.8742 81.4451 13.2242 82.5248 12.7614C83.6265 12.2766 84.8495 12.0343 86.1937 12.0343C87.5378 12.0343 88.7497 12.2766 89.8295 12.7614C90.9312 13.2242 91.8677 13.8742 92.639 14.7115C93.4322 15.5268 94.0382 16.4744 94.4569 17.5541C94.8755 18.6338 95.0849 19.7796 95.0849 20.9916C95.0849 22.2035 94.8755 23.3494 94.4569 24.4291C94.0382 25.4868 93.4322 26.4343 92.639 27.2716C91.8677 28.109 90.9312 28.77 89.8295 29.2548C88.7497 29.7175 87.5378 29.9489 86.1937 29.9489ZM81.0374 21.0246C81.0374 22.1264 81.2688 23.118 81.7315 23.9994C82.1943 24.8808 82.8112 25.5749 83.5825 26.0817C84.3537 26.5885 85.2241 26.8419 86.1937 26.8419C87.1412 26.8419 88.0005 26.5885 88.7718 26.0817C89.565 25.5529 90.1931 24.8478 90.6558 23.9663C91.1185 23.0629 91.3499 22.0713 91.3499 20.9916C91.3499 19.8898 91.1185 18.8982 90.6558 18.0168C90.1931 17.1354 89.565 16.4413 88.7718 15.9345C88.0005 15.4056 87.1412 15.1412 86.1937 15.1412C85.2241 15.1412 84.3537 15.4056 83.5825 15.9345C82.8112 16.4633 82.1943 17.1685 81.7315 18.0499C81.2688 18.9093 81.0374 19.9008 81.0374 21.0246Z" fill="#5BC3E3"/>
<path d="M97.9791 29.6184V12.3648H101.615V24.7596L110.374 12.3317H113.679V29.6184H110.043V17.488L101.384 29.6184H97.9791ZM105.846 10.5469C104.215 10.5469 102.948 10.1392 102.045 9.32392C101.163 8.50861 100.722 7.48397 100.722 6.25H103.102C103.102 6.88902 103.312 7.41787 103.73 7.83654C104.171 8.25521 104.876 8.46454 105.846 8.46454C106.793 8.46454 107.465 8.26622 107.862 7.86959C108.281 7.47296 108.534 6.93309 108.622 6.25H111.002C111.002 7.48397 110.55 8.50861 109.647 9.32392C108.765 10.1392 107.498 10.5469 105.846 10.5469Z" fill="#5BC3E3"/>
<path d="M123.877 33.75V26.4123H124.273C124.736 26.4123 125.166 26.28 125.562 26.0156C125.959 25.7512 126.311 25.2995 126.62 24.6605C126.928 23.9994 127.182 23.096 127.38 21.9501C127.578 20.7822 127.7 19.3169 127.744 17.5541L127.942 12.3317H140.271V26.4123H142.651V33.75H139.444V29.6184H127.05V33.75H123.877ZM129.066 26.4123H136.635V15.4718H131.148L131.049 17.8846C130.983 19.5593 130.862 20.9695 130.685 22.1154C130.531 23.2612 130.311 24.1757 130.024 24.8588C129.76 25.5419 129.44 26.0597 129.066 26.4123Z" fill="#5BC3E3"/>
<path d="M153.172 29.9489C151.806 29.9489 150.583 29.7175 149.503 29.2548C148.424 28.77 147.487 28.109 146.694 27.2716C145.923 26.4343 145.328 25.4868 144.909 24.4291C144.49 23.3494 144.281 22.2035 144.281 20.9916C144.281 19.7796 144.49 18.6338 144.909 17.5541C145.328 16.4744 145.923 15.5268 146.694 14.7115C147.487 13.8742 148.424 13.2242 149.503 12.7614C150.605 12.2766 151.828 12.0343 153.172 12.0343C154.516 12.0343 155.728 12.2766 156.808 12.7614C157.91 13.2242 158.846 13.8742 159.618 14.7115C160.411 15.5268 161.017 16.4744 161.435 17.5541C161.854 18.6338 162.063 19.7796 162.063 20.9916C162.063 22.2035 161.854 23.3494 161.435 24.4291C161.017 25.4868 160.411 26.4343 159.618 27.2716C158.846 28.109 157.91 28.77 156.808 29.2548C155.728 29.7175 154.516 29.9489 153.172 29.9489ZM148.016 21.0246C148.016 22.1264 148.247 23.118 148.71 23.9994C149.173 24.8808 149.79 25.5749 150.561 26.0817C151.332 26.5885 152.203 26.8419 153.172 26.8419C154.12 26.8419 154.979 26.5885 155.75 26.0817C156.544 25.5529 157.172 24.8478 157.634 23.9663C158.097 23.0629 158.328 22.0713 158.328 20.9916C158.328 19.8898 158.097 18.8982 157.634 18.0168C157.172 17.1354 156.544 16.4413 155.75 15.9345C154.979 15.4056 154.12 15.1412 153.172 15.1412C152.203 15.1412 151.332 15.4056 150.561 15.9345C149.79 16.4633 149.173 17.1685 148.71 18.0499C148.247 18.9093 148.016 19.9008 148.016 21.0246Z" fill="#5BC3E3"/>
<path d="M164.958 29.6184V12.3317H168.726L174.675 23.0078L180.658 12.3317H184.36V29.6184H180.889V17.4549L175.799 26.5445H173.518L168.395 17.4549V29.6184H164.958Z" fill="#5BC3E3"/>
</svg>
