<svg width="18" height="13" viewBox="0 0 18 13" fill="none" xmlns="http://www.w3.org/2000/svg">
<path d="M17.8415 0.904175L12.3824 6.32803L17.8415 11.7519C17.9401 11.5456 18 11.3176 18 11.0741V1.58195C18 1.33842 17.9401 1.11044 17.8415 0.904175Z" fill="#5BC3E3"/>
<path d="M16.4177 0H1.58183C1.3383 0 1.11031 0.0598711 0.904053 0.158555L7.88125 7.10061C8.49817 7.71753 9.50138 7.71753 10.1183 7.10061L17.0955 0.158555C16.8892 0.0598711 16.6612 0 16.4177 0Z" fill="#5BC3E3"/>
<path d="M0.158554 0.904175C0.0598709 1.11044 0 1.33842 0 1.58195V11.0741C0 11.3176 0.0598709 11.5457 0.158554 11.7519L5.61757 6.32803L0.158554 0.904175Z" fill="#5BC3E3"/>
<path d="M11.6365 7.07385L10.864 7.84634C9.83607 8.87427 8.16344 8.87427 7.13551 7.84634L6.36306 7.07385L0.904053 12.4977C1.11031 12.5964 1.3383 12.6563 1.58183 12.6563H16.4177C16.6612 12.6563 16.8892 12.5964 17.0955 12.4977L11.6365 7.07385Z" fill="#5BC3E3"/>
</svg>
