<svg width="20" height="20" viewBox="0 0 20 20" fill="none" xmlns="http://www.w3.org/2000/svg">
<path d="M17.5745 13.5619C17.5302 13.5268 14.3175 11.2111 13.4356 11.3773C13.0147 11.4518 12.774 11.7389 12.291 12.3136C12.2133 12.4065 12.0265 12.6288 11.8814 12.7869C11.5761 12.6874 11.2783 12.5662 10.9903 12.4243C9.5038 11.7006 8.30272 10.4995 7.57901 9.01294C7.437 8.72498 7.3158 8.42721 7.21634 8.12193C7.37501 7.97621 7.59736 7.78948 7.69234 7.70961C8.2644 7.22929 8.55205 6.98859 8.62653 6.56656C8.77926 5.69228 6.4651 2.45742 6.44082 2.42828C6.33582 2.27828 6.1988 2.1535 6.03966 2.06297C5.88052 1.97243 5.70324 1.9184 5.52066 1.90479C4.58269 1.90479 1.90479 5.37872 1.90479 5.96374C1.90479 5.99774 1.9539 9.45386 6.21577 13.7891C10.5467 18.0461 14.0023 18.0953 14.0363 18.0953C14.6219 18.0953 18.0953 15.4174 18.0953 14.4794C18.0818 14.2974 18.0281 14.1208 17.938 13.9621C17.848 13.8034 17.7238 13.6668 17.5745 13.5619Z" fill="#5BC3E3"/>
</svg>
