<svg width="39" height="39" viewBox="0 0 39 39" fill="none" xmlns="http://www.w3.org/2000/svg">
<g clip-path="url(#clip0_0_148)">
<path d="M27.4921 7.97568L27.6992 8.15616V7.88144V4.6465C27.6992 4.08452 28.1548 3.62892 28.7168 3.62892H33.2871C33.8491 3.62892 34.3047 4.08452 34.3048 4.6465V13.8551V13.9119L34.3477 13.9493C34.4889 14.0724 34.9822 14.5022 35.5831 15.0258C36.79 16.0774 38.431 17.5072 38.5258 17.5901L38.526 17.5902C38.9497 17.9595 38.9938 18.6023 38.6246 19.026L38.7189 19.1081L38.6246 19.026C38.2555 19.4497 37.6128 19.4939 37.189 19.1247L36.797 18.7831L36.5899 18.6027V18.8774V36.6387C36.5899 37.2007 36.1343 37.6563 35.5723 37.6563H3.42775C2.86578 37.6563 2.41017 37.2007 2.41017 36.6387V18.8774V18.6027L2.20306 18.7831L1.81109 19.1247C1.38736 19.4938 0.744587 19.4497 0.375344 19.026C0.00614611 18.6022 0.0503302 17.9594 0.474036 17.5903L0.391922 17.496L0.474043 17.5902L18.8315 1.59416C19.2146 1.26032 19.7853 1.26032 20.1685 1.59415L27.4921 7.97568ZM29.8594 5.66407H29.7344V5.78907V9.87265V9.92952L29.7773 9.96689L32.0624 11.9581L32.2696 12.1386V11.8639V5.78907V5.66407H32.1446H29.8594ZM18.2324 35.4961V35.6211H18.3574H20.6426H20.7676V35.4961V27.0782C20.7676 26.6476 21.0387 26.2637 21.4444 26.1194C23.8164 25.2761 25.4141 23.0771 25.4141 20.6426C25.4141 18.79 24.4886 17.0735 23.0015 15.9876L22.8028 15.8424V16.0885V20.6426C22.8028 20.9125 22.6956 21.1713 22.5048 21.3621L22.5047 21.3621L20.2196 23.6472C19.8222 24.0446 19.1779 24.0446 18.7805 23.6472L18.6921 23.7356L18.7805 23.6472L16.4954 21.3621C16.3045 21.1712 16.1973 20.9124 16.1973 20.6426V16.102V15.8519L15.9973 16.002C14.5561 17.0835 13.6621 18.792 13.6621 20.6426C13.6621 23.0914 15.2274 25.2917 17.5557 26.1194L17.5975 26.0017L17.5557 26.1194C17.9614 26.2637 18.2324 26.6476 18.2324 27.0782V35.4961ZM34.4297 35.6211H34.5547V35.4961V16.8862V16.8293L34.5118 16.7919L19.5821 3.78261L19.5 3.71106L19.4179 3.78261L4.48821 16.7919L4.44533 16.8292V16.8861V35.4961V35.6211H4.57033H16.0723H16.1973V35.4961V27.8401V27.7611L16.126 27.7272C13.4048 26.4333 11.627 23.6788 11.627 20.6426C11.627 17.3361 13.7352 14.364 16.8739 13.2482C17.1856 13.1375 17.5315 13.1849 17.8016 13.3756C18.0717 13.5663 18.2324 13.8763 18.2324 14.207V20.1693V20.2211L18.269 20.2577L19.4116 21.4003L19.4999 21.4887L19.5883 21.4003L20.7309 20.2577L20.7675 20.2211V20.1693V14.207C20.7675 13.8764 20.9282 13.5663 21.1984 13.3756C21.4686 13.1849 21.8146 13.1374 22.126 13.2481C25.3117 14.3806 27.4492 17.3536 27.4492 20.6426C27.4492 23.6668 25.6422 26.4238 22.8744 27.7285L22.8028 27.7623V27.8416V35.4961V35.6211H22.9278H34.4297Z" fill="white" stroke="#5BC3E3" stroke-width="0.25"/>
</g>
<defs>
<clipPath id="clip0_0_148">
<rect width="39" height="39" fill="white"/>
</clipPath>
</defs>
</svg>
