<svg width="16" height="20" viewBox="0 0 16 20" fill="none" xmlns="http://www.w3.org/2000/svg">
<path d="M8.14884 0.952393C4.1282 0.952393 0.857178 4.22341 0.857178 8.24406C0.857178 9.53104 1.19721 10.7963 1.84047 11.9031C1.99044 12.1611 2.15807 12.4126 2.3388 12.6505L7.83203 20H8.46562L13.9589 12.6505C14.1396 12.4126 14.3072 12.1612 14.4572 11.9031C15.1005 10.7963 15.4405 9.53104 15.4405 8.24406C15.4405 4.22341 12.1695 0.952393 8.14884 0.952393ZM8.14884 10.6622C6.81547 10.6622 5.73069 9.57743 5.73069 8.24406C5.73069 6.91069 6.81547 5.8259 8.14884 5.8259C9.48221 5.8259 10.567 6.91069 10.567 8.24406C10.567 9.57743 9.48221 10.6622 8.14884 10.6622Z" fill="#5BC3E3"/>
</svg>
