<svg width="39" height="39" viewBox="0 0 39 39" fill="none" xmlns="http://www.w3.org/2000/svg">
<path d="M15.9836 4.38122C13.3453 1.74298 9.39582 1.32542 6.30713 2.98916C6.02178 3.14291 5.82593 3.42244 5.77882 3.74313C5.73179 4.06382 5.83912 4.38786 6.06834 4.61707L9.9166 8.46534C10.3165 8.86519 10.3165 9.51573 9.9166 9.91544C9.51675 10.3153 8.86628 10.3154 8.46643 9.91544L4.61817 6.06711C4.38895 5.83789 4.06484 5.7305 3.74422 5.7776C3.42353 5.82463 3.144 6.02056 2.99025 6.3059C1.3328 9.38304 1.73518 13.3351 4.38245 15.9823C6.48699 18.0869 9.51497 18.8539 12.3076 18.1065L15.9836 4.38122ZM15.9836 4.38122C18.0928 6.49048 18.8534 9.52004 18.1077 12.3064L20.1556 14.3542L20.2263 14.4249L20.297 14.3542L25.7546 8.89666L25.8253 8.82595L25.7546 8.75524L25.1002 8.1009L15.9836 4.38122ZM26.6246 20.9646L26.6654 21.0054L26.7211 20.9905C29.4798 20.2522 32.4709 21.0099 34.5497 23.0887C37.164 25.703 37.5622 29.6066 35.9245 32.647C35.7858 32.9046 35.5335 33.0814 35.2441 33.1238C34.9546 33.1661 34.6621 33.0694 34.4554 32.8625L34.3846 32.9332L34.4554 32.8625L30.6071 29.0143C30.1683 28.5754 29.4544 28.5754 29.0155 29.0143C28.5766 29.4531 28.5766 30.1669 29.0155 30.6058L32.8638 34.4541C33.0706 34.6609 33.1675 34.9534 33.125 35.2428C33.0825 35.5322 32.9058 35.7845 32.6483 35.9232C29.5964 37.5671 25.6954 37.1539 23.0899 34.5484C21.0064 32.4649 20.255 29.4723 20.9917 26.7199L21.0066 26.6641L20.9658 26.6233L20.2975 25.955L20.2268 25.8843L20.1561 25.955L10.6844 35.4269C8.72429 37.387 5.53485 37.3869 3.57477 35.4269C1.60781 33.4598 1.60901 30.283 3.57477 28.3172L3.50406 28.2465L3.57477 28.3172L13.0465 18.8453L13.1172 18.7746L13.0465 18.7039L12.3783 18.0358L12.3375 17.995L12.2817 18.0099C9.52304 18.7482 6.53203 17.9905 4.45316 15.9116C1.83884 13.2974 1.4406 9.39376 3.07828 6.35334C3.21705 6.0958 3.46933 5.91898 3.75873 5.87654L3.75875 5.87653C4.04807 5.83403 4.34057 5.93094 4.54745 6.13782L8.39571 9.98615C8.39571 9.98615 8.39572 9.98615 8.39572 9.98615C8.83463 10.4251 9.54841 10.425 9.9873 9.98617C10.4262 9.54739 10.4262 8.83353 9.98731 8.39463L6.13905 4.54636C5.93218 4.33949 5.83532 4.04706 5.87777 3.75764C5.92028 3.46822 6.09704 3.21595 6.35455 3.0772C9.40637 1.43332 13.3074 1.8465 15.9129 4.45193C17.9964 6.53545 18.7478 9.52802 18.0111 12.2805L17.9962 12.3363L18.037 12.3771L20.1556 14.4956L20.2263 14.5663L20.297 14.4956L25.896 8.89666L25.9667 8.82595L25.896 8.75524L25.1709 8.03019C24.746 7.60524 24.8328 6.89211 25.3491 6.58231L32.5999 2.23186C32.9639 2.01346 33.4301 2.07079 33.7303 2.37104L33.7303 2.37105L36.6307 5.27133L36.7014 5.20062L36.6307 5.27134C36.931 5.57154 36.9884 6.03765 36.7699 6.40177L36.8556 6.45322L36.7699 6.40177L32.4194 13.6525C32.1084 14.1709 31.3953 14.2546 30.9715 13.8307L30.9008 13.9015L30.9715 13.8307L30.2464 13.1057L30.1757 13.035L30.105 13.1057L24.506 18.7047L24.4353 18.7754L24.506 18.8461L26.6246 20.9646ZM32.9877 4.24591L32.9325 4.1907L32.8656 4.23087L27.4276 7.49368L27.3177 7.55957L27.4083 7.65014L31.3516 11.5933L31.4421 11.6839L31.508 11.574L34.7708 6.13606L34.8109 6.06911L34.7557 6.0139L32.9877 4.24591ZM27.3461 10.2054L27.2754 10.1347L27.2047 10.2054L21.6057 15.8044L21.535 15.8751L21.6057 15.9458L23.0559 17.3959L23.1266 17.4666L23.1973 17.3959L28.7962 11.7969L28.8669 11.7262L28.7962 11.6555L27.3461 10.2054ZM4.88346 34.1183L4.95417 34.0476L4.88346 34.1183C6.12207 35.3568 8.13713 35.3568 9.37567 34.1183L18.8473 24.6464L18.918 24.5756L18.8473 24.5049L14.4965 20.1541L14.4258 20.0834L14.3551 20.1541L4.88346 29.626C3.64011 30.8694 3.6409 32.8757 4.88346 34.1183ZM34.6702 30.46L34.792 30.5818L34.8374 30.4156C35.4181 28.2889 34.8459 26.0025 33.241 24.3975L33.1703 24.4682L33.241 24.3975C31.5424 22.699 28.9822 22.1223 26.718 22.9283C26.3814 23.0481 26.0059 22.9635 25.7533 22.7108L16.2908 13.2484L16.2908 13.2484C16.0382 12.9958 15.9535 12.6203 16.0733 12.2837C16.8793 10.0193 16.3028 7.45927 14.6042 5.76069C12.9993 4.15584 10.7127 3.5835 8.58604 4.1643L8.41987 4.20968L8.54167 4.33148L11.2961 7.08587C12.4564 8.24631 12.4564 10.1346 11.2961 11.2949C10.1356 12.4551 8.24733 12.4552 7.08703 11.2949L4.33264 8.54051L4.21083 8.41871L4.16546 8.58488C3.58479 10.7116 4.15699 12.9981 5.76185 14.603C7.46042 16.3015 10.0204 16.8781 12.2848 16.0721C12.6222 15.9521 12.9974 16.0375 13.2495 16.2896L22.7121 25.7521L22.7828 25.6814L22.7121 25.7521C22.9647 26.0047 23.0494 26.3802 22.9295 26.7168C22.1235 28.9811 22.7001 31.5412 24.3987 33.2398C26.0036 34.8446 28.2901 35.4169 30.4168 34.8362L30.583 34.7908L30.4612 34.669L27.7068 31.9146C26.5465 30.7542 26.5465 28.8659 27.7068 27.7056C28.8672 26.5453 30.7555 26.5454 31.9158 27.7056L34.6702 30.46Z" fill="white" stroke="#5BC3E3" stroke-width="0.2"/>
<path d="M15.2619 25.2534C15.6233 24.892 15.6233 24.3061 15.262 23.9447C14.9006 23.5834 14.3147 23.5834 13.9533 23.9447L13.9533 23.9447M15.2619 25.2534L13.8826 23.874L13.9533 23.9447M15.2619 25.2534L8.99602 31.5196C8.99601 31.5196 8.99601 31.5196 8.99601 31.5196M15.2619 25.2534L8.99601 31.5196M13.9533 23.9447L7.68733 30.2109L13.9533 23.9447ZM7.68732 31.5196C7.32598 31.1582 7.32598 30.5723 7.68733 30.2109L7.68732 31.5196ZM7.68732 31.5196C8.0488 31.881 8.63459 31.8809 8.99601 31.5196M7.68732 31.5196L8.99601 31.5196" fill="white" stroke="#5BC3E3" stroke-width="0.2"/>
</svg>
