<svg width="39" height="39" viewBox="0 0 39 39" fill="none" xmlns="http://www.w3.org/2000/svg">
<path d="M34.3598 15.5086H23.8839V7.09089H34.3598C34.8823 7.09089 35.306 6.66726 35.306 6.14471C35.306 5.62217 34.8823 5.19853 34.3598 5.19853H23.7466C23.4693 4.49741 22.7852 3.99997 21.9866 3.99997H20.0942C19.7497 3.99997 19.4266 4.09301 19.148 4.25456C18.8695 4.09301 18.5464 3.99997 18.2019 3.99997H16.3095C15.5109 3.99997 14.8268 4.49741 14.5495 5.19853H3.94618C3.42364 5.19853 3 5.62217 3 6.14471C3 6.66726 3.42364 7.09089 3.94618 7.09089H14.4171V15.5086H3.94618C3.42364 15.5086 3 15.9323 3 16.4548C3 16.9774 3.42364 17.401 3.94618 17.401H14.5495C14.8268 18.102 15.5109 18.5995 16.3095 18.5995H18.2019C18.5464 18.5995 18.8695 18.5064 19.148 18.3449C19.4266 18.5064 19.7497 18.5995 20.0942 18.5995H21.9866C22.7851 18.5995 23.4693 18.102 23.7466 17.401H34.3598C34.8823 17.401 35.306 16.9774 35.306 16.4548C35.306 15.9323 34.8823 15.5086 34.3598 15.5086ZM16.3095 16.7071L16.3093 5.89233H18.2019V16.7071H16.3095ZM21.9866 16.7071H20.0942V5.89233H21.9866V16.7071Z" fill="white"/>
<path d="M20.7588 22.0508C19.8842 21.1595 19.5301 20.9963 19.1481 20.9963C18.7661 20.9963 18.4121 21.1595 17.5374 22.0508C16.9845 22.6143 16.3793 23.3187 15.8333 24.0343C14.7269 25.4843 13.408 27.568 13.408 29.2597C13.408 32.4249 15.983 34.9999 19.1481 34.9999C22.3133 34.9999 24.8883 32.4249 24.8883 29.2597C24.8883 27.568 23.5694 25.4843 22.4629 24.0343C21.9168 23.3186 21.3117 22.6142 20.7588 22.0508ZM19.1481 33.1075C17.0264 33.1075 15.3003 31.3814 15.3003 29.2597C15.3003 28.423 15.9675 27.0375 17.1307 25.4583C17.9203 24.3865 18.6928 23.5557 19.1481 23.1205C19.6034 23.5557 20.376 24.3865 21.1655 25.4583C22.3287 27.0375 22.9959 28.423 22.9959 29.2597C22.9959 31.3814 21.2698 33.1075 19.1481 33.1075Z" fill="white"/>
</svg>
